<?xml version="1.0" encoding="UTF-8"?>
<svg width="164px" height="125px" viewBox="0 0 164 125" version="1.1" xmlns="http://www.w3.org/2000/svg" xmlns:xlink="http://www.w3.org/1999/xlink">
    <!-- Generator: Sketch 40.1 (33804) - http://www.bohemiancoding.com/sketch -->
    <title>Page 1</title>
    <desc>Created with Sketch.</desc>
    <defs></defs>
    <g id="Page-1" stroke="none" stroke-width="1" fill="none" fill-rule="evenodd">
        <g id="Index-02" transform="translate(-638.000000, -48.000000)" fill="#2A2B31">
            <g id="Group-13">
                <g id="Page-1" transform="translate(638.000000, 48.000000)">
                    <path d="M0,125 L164,125 L164,0 L0,0 L0,125 Z M5.01389871,120.087331 L158.987362,120.087331 L158.987362,4.91637589 L5.01389871,4.91637589 L5.01389871,120.087331 Z" id="Fill-1"></path>
                    <g id="Group-18" transform="translate(27.000000, 21.000000)">
                        <path d="M11.7175097,11.3729032 L11.7175097,8.96048004 C11.7175097,7.6401593 11.4460674,6.68427098 10.9031829,6.0952048 C10.3602983,5.50852835 9.72441965,5.21220297 9.00057357,5.21220297 C7.85322727,5.21220297 7.06654733,5.49299516 6.64430379,6.05338469 C6.22080356,6.61257936 6.00968179,7.48124287 6.00968179,8.65937522 L6.00968179,24.4255582 C6.00968179,25.6024957 6.22080356,26.4711592 6.64430379,27.0315487 C7.06654733,27.5919383 7.85322727,27.8715356 9.00057357,27.8715356 C10.0260222,27.8715356 10.7373015,27.5991074 11.1293848,27.0530562 C11.5227247,26.5081999 11.7175097,25.7327355 11.7175097,24.726663 L11.7175097,20.9795808 L17.3361136,20.9795808 L17.3361136,24.5546031 C17.3361136,25.6455107 17.1614354,26.6802598 16.8158492,27.6564607 C16.4677496,28.6326617 15.9550253,29.4798177 15.2751629,30.1979288 C14.5940439,30.914845 13.7269366,31.4835986 12.670071,31.89941 C11.6119488,32.3152214 10.3892019,32.524322 9.00057357,32.524322 C7.51895113,32.524322 6.24468043,32.3152214 5.17147809,31.89941 C4.09953242,31.4835986 3.20854827,30.914845 2.49852564,30.1979288 C1.78850302,29.4798177 1.25944191,28.6326617 0.912598996,27.6564607 C0.564499406,26.6802598 0.392334627,25.6455107 0.392334627,24.5546031 L0.392334627,8.52913544 C0.392334627,7.43822789 0.564499406,6.40467365 0.912598996,5.42727784 C1.25944191,4.45227175 1.78850302,3.60511573 2.49852564,2.88580977 C3.20854827,2.16889353 4.09953242,1.60133484 5.17147809,1.18552342 C6.24468043,0.76851714 7.51895113,0.56061143 9.00057357,0.56061143 C10.3892019,0.56061143 11.6119488,0.790024627 12.670071,1.24885102 C13.7269366,1.70887227 14.5940439,2.3266151 15.2751629,3.1020795 C15.9550253,3.8775439 16.4677496,4.78085836 16.8158492,5.81560747 C17.1614354,6.84916172 17.3361136,7.94126412 17.3361136,9.08952497 L17.3361136,11.3729032 L11.7175097,11.3729032 Z" id="Fill-2"></path>
                        <polygon id="Fill-4" points="68.876719 5.97273161 63.4403333 5.97273161 63.4403333 1.31875035 79.9317085 1.31875035 79.9317085 5.97273161 74.4953228 5.97273161 74.4953228 32.4221614 68.876719 32.4221614"></polygon>
                        <polygon id="Fill-6" points="106.119228 32.421803 100.501881 32.421803 100.501881 19.4993877 93.7070271 1.31958676 99.4135984 1.31958676 103.357051 13.1666276 103.447532 13.1666276 107.20751 1.31958676 112.916595 1.31958676 106.119228 19.4993877"></polygon>
                        <path d="M6.67861108,62.3936813 L8.85266266,62.3936813 C9.75872694,62.3936813 10.52153,62.3219896 11.1423286,62.1786064 C11.7593571,62.0352231 12.2570012,61.7759384 12.6352611,61.403142 C13.0135209,61.0291507 13.2774231,60.5344785 13.4294811,59.9167356 C13.5802824,59.2989928 13.655683,58.5318924 13.655683,57.6118499 C13.655683,56.6930023 13.5802824,55.924707 13.4294811,55.3069642 C13.2774231,54.6904163 13.0135209,54.2017184 12.6352611,53.8432602 C12.2570012,53.4836072 11.7593571,53.2255174 11.1423286,53.066601 C10.52153,52.9100743 9.75872694,52.8300186 8.85266266,52.8300186 L6.67861108,52.8300186 L6.67861108,62.3936813 Z M1.05875056,79.5387331 L1.05875056,48.4353221 L9.12284826,48.4353221 C12.5975608,48.4353221 15.1574123,49.1402897 16.8036594,50.5466404 C18.4499066,51.9541859 19.2730302,54.3092558 19.2730302,57.6118499 C19.2730302,59.2774853 19.0694484,60.6910052 18.6610283,61.8547992 C18.2538649,63.0173984 17.6355797,63.9649227 16.8036594,64.698567 C15.9729958,65.4310164 14.9161302,65.9615344 13.6318061,66.2925107 C12.3487387,66.6222922 10.8457527,66.7871829 9.12284826,66.7871829 L6.67861108,66.7871829 L6.67861108,79.5387331 L1.05875056,79.5387331 Z" id="Fill-8"></path>
                        <path d="M37.6917711,67.9933945 L42.2233492,67.9933945 L40.0040572,54.6396347 L39.9148331,54.6396347 L37.6917711,67.9933945 Z M35.8808993,79.5381357 L30.4432569,79.5381357 L36.4690242,48.4359195 L43.4460961,48.4359195 L49.4718634,79.5381357 L44.0367344,79.5381357 L43.0389327,72.6461809 L36.8774443,72.6461809 L35.8808993,79.5381357 Z" id="Fill-10"></path>
                        <path d="M68.5797661,62.5337189 L70.5753696,62.5337189 C71.3293759,62.5337189 71.971538,62.4632221 72.4993424,62.318644 C73.0271468,62.1752608 73.4594438,61.9159761 73.7899499,61.5431796 C74.124226,61.1691883 74.3655081,60.6745161 74.517566,60.0567733 C74.6671106,59.4390305 74.7425112,58.6731249 74.7425112,57.7530824 C74.7425112,55.9141923 74.4258286,54.658394 73.7899499,53.9832979 C73.1578412,53.3093966 72.0833822,52.9712511 70.5753696,52.9712511 L68.5797661,52.9712511 L68.5797661,62.5337189 Z M68.5797661,79.6799656 L62.962419,79.6799656 L62.962419,48.5765546 L70.8468118,48.5765546 C73.9885049,48.5765546 76.3573414,49.2803273 77.9608616,50.686678 C79.5606117,52.0954184 80.3611151,54.4492934 80.3611151,57.7530824 C80.3611151,59.0160499 80.2480141,60.093814 80.0205555,60.9827901 C79.7956103,61.874156 79.4927511,62.626918 79.1144913,63.2446608 C78.7362314,63.8624037 78.3139879,64.3582707 77.8452473,64.7310672 C77.3765067,65.1038636 76.9014827,65.3930198 76.4189186,65.5925615 L81.1754419,79.6799656 L75.4663573,79.6799656 L71.4814338,66.7981757 C71.1195108,66.8567238 70.6733904,66.8925696 70.1443293,66.906908 C69.6152682,66.9212463 69.0950038,66.9284154 68.5797661,66.9284154 L68.5797661,79.6799656 Z" id="Fill-12"></path>
                        <polygon id="Fill-14" points="95.3516406 79.5382552 95.3516406 48.436039 100.970244 48.436039 100.970244 59.9377652 101.060725 59.9377652 106.949515 48.436039 112.568118 48.436039 106.495854 60.0237951 113.338462 79.5382552 107.630634 79.5382552 103.055072 65.0649112 102.963335 65.0649112 100.970244 68.5108886 100.970244 79.5382552"></polygon>
                        <polygon id="Fill-16" points="46.6149334 5.94584725 46.6149334 1.29425572 34.8650014 1.29425572 34.8650014 5.94584725 37.9300371 5.94584725 37.9300371 27.7950645 34.8650014 27.7950645 34.8650014 32.4466561 46.6149334 32.4466561 46.6149334 27.7950645 43.5498977 27.7950645 43.5498977 5.94584725"></polygon>
                    </g>
                </g>
            </g>
        </g>
    </g>
</svg>